<svg height="256pt" preserveAspectRatio="xMidYMid meet" viewBox="0 0 256 256" width="256pt" xmlns="http://www.w3.org/2000/svg"><g transform="matrix(.1 0 0 -.1 0 256)"><path d="m1280 1537c0-280 3-506 8-504 4 3 76 44 160 92 83 47 152 90 152 93 0 4-72 192-160 417l-159 410z"/><path d="m1451 1115c-79-46-147-87-150-92-3-4-11-8-17-8-11 0-885-508-881-511 1-2 200 29 441 68l439 70 416-66c229-37 427-69 440-72l24-5-19 29c-41 63-530 671-539 671-5-1-75-38-154-84zm-101-131c0-2-9 0-20 6s-20 13-20 16c0 2 9 0 20-6s20-13 20-16zm70-40c0-2-13 2-30 11-16 9-30 18-30 21 0 2 14-2 30-11 17-9 30-18 30-21zm50-30c0-2-9 0-20 6s-20 13-20 16c0 2 9 0 20-6s20-13 20-16zm70-40c0-2-13 2-30 11-16 9-30 18-30 21 0 2 14-2 30-11 17-9 30-18 30-21zm50-30c0-2-9 0-20 6s-20 13-20 16c0 2 9 0 20-6s20-13 20-16zm70-40c0-2-13 2-30 11-16 9-30 18-30 21 0 2 14-2 30-11 17-9 30-18 30-21zm50-30c0-2-9 0-20 6s-20 13-20 16c0 2 9 0 20-6s20-13 20-16zm70-40c0-2-13 2-30 11-16 9-30 18-30 21 0 2 14-2 30-11 17-9 30-18 30-21zm50-30c0-2-9 0-20 6s-20 13-20 16c0 2 9 0 20-6s20-13 20-16zm70-40c0-2-13 2-30 11-16 9-30 18-30 21 0 2 14-2 30-11 17-9 30-18 30-21zm50-30c0-2-9 0-20 6s-20 13-20 16c0 2 9 0 20-6s20-13 20-16zm50-30c0-2-9 0-20 6s-20 13-20 16c0 2 9 0 20-6s20-13 20-16zm70-40c0-2-9 0-20 6s-20 13-20 16c0 2 9 0 20-6s20-13 20-16zm50-30c0-2-9 0-20 6s-20 13-20 16c0 2 9 0 20-6s20-13 20-16z"/></g></svg>